<svg width="80" height="80" viewBox="0 0 80 80" fill="none" xmlns="http://www.w3.org/2000/svg">
<path d="M74.2857 0H5.69643C2.55357 0 0 2.58929 0 5.76786V74.2321C0 77.4107 2.55357 80 5.69643 80H74.2857C77.4286 80 80 77.4107 80 74.2321V5.76786C80 2.58929 77.4286 0 74.2857 0ZM24.1786 68.5714H12.3214V30.3929H24.1964V68.5714H24.1786ZM18.25 25.1786C14.4464 25.1786 11.375 22.0893 11.375 18.3036C11.375 14.5179 14.4464 11.4286 18.25 11.4286C22.0357 11.4286 25.125 14.5179 25.125 18.3036C25.125 22.1071 22.0536 25.1786 18.25 25.1786ZM68.625 68.5714H56.7679V50C56.7679 45.5714 56.6786 39.875 50.6071 39.875C44.4286 39.875 43.4821 44.6964 43.4821 49.6786V68.5714H31.625V30.3929H43V35.6071H43.1607C44.75 32.6071 48.625 29.4464 54.3929 29.4464C66.3929 29.4464 68.625 37.3571 68.625 47.6429V68.5714Z" fill="#C9C7C0"/>
</svg>
