<svg width="80" height="78" viewBox="0 0 80 78" fill="none" xmlns="http://www.w3.org/2000/svg">
<path d="M53.2419 62.8055C53.2419 63.1281 53.6129 63.3861 54.0806 63.3861C54.6129 63.4345 54.9839 63.1764 54.9839 62.8055C54.9839 62.4829 54.6129 62.2248 54.1452 62.2248C53.6613 62.1765 53.2419 62.4345 53.2419 62.8055ZM58.2581 62.0797C58.371 62.4023 58.0484 62.7732 57.5645 62.87C57.1452 63.0313 56.6613 62.87 56.5645 62.5474C56.4677 62.2248 56.7742 61.8539 57.2581 61.7087C57.6774 61.5958 58.1452 61.7571 58.2581 62.0797ZM51.129 61.8055C51.5968 61.9184 51.9194 62.2248 51.871 62.5958C51.8226 62.9184 51.4032 63.1281 50.9194 63.0152C50.4516 62.9023 50.129 62.5958 50.1774 62.2732C50.2258 61.9668 50.6613 61.7571 51.129 61.8055ZM40.5161 0C62.8871 0 80 16.9836 80 39.3542C80 57.2411 68.7419 72.5473 52.6613 77.9343C50.5968 78.3053 49.871 77.0311 49.871 75.9827C49.871 74.9827 49.9194 69.4667 49.9194 66.0796C49.9194 66.0796 61.2097 68.4989 63.5806 61.2733C63.5806 61.2733 65.4194 56.5798 68.0645 55.3701C68.0645 55.3701 71.7581 52.8379 67.8065 52.8863C67.8065 52.8863 63.7903 53.2089 61.5806 57.0475C58.0484 63.2732 52.129 61.4829 49.8226 60.4184C49.4516 57.8378 48.4032 56.0475 47.2419 54.983C56.2581 53.983 65.3548 52.6766 65.3548 37.1607C65.3548 32.7253 64.129 30.4995 61.5484 27.6609C61.9677 26.6125 63.3387 22.29 61.129 16.7094C57.7581 15.661 50 21.0642 50 21.0642C46.7742 20.161 43.3065 19.6932 39.871 19.6932C36.4355 19.6932 32.9677 20.161 29.7419 21.0642C29.7419 21.0642 21.9839 15.6449 18.6129 16.7094C16.4032 22.3061 17.7742 26.6125 18.1936 27.6609C15.6129 30.5157 14.0323 32.7414 14.0323 37.1607C14.0323 52.725 23.5323 53.9669 32.5484 54.983C31.0645 56.2572 29.8064 58.6765 29.8064 62.4668C29.8064 67.9022 29.8548 74.6279 29.8548 75.9504C29.8548 76.9988 29.1129 78.273 27.0645 77.902C10.9355 72.5473 0 57.2411 0 39.3542C0 16.9836 18.1452 0 40.5161 0ZM64.3226 55.6282C64.5323 55.7895 64.4839 56.1604 64.2097 56.4669C63.9516 56.7249 63.5806 56.8378 63.371 56.6282C63.1613 56.4669 63.2097 56.0959 63.4839 55.7895C63.7419 55.5314 64.1129 55.4185 64.3226 55.6282ZM66.0645 54.3217C66.1774 54.5314 66.0161 54.7895 65.6935 54.9508C65.4355 55.1121 65.1129 55.0637 65 54.8379C64.8871 54.6282 65.0484 54.3701 65.371 54.2088C65.6935 54.1121 65.9516 54.1605 66.0645 54.3217ZM60.8387 60.0636C61.0968 60.2733 61 60.7571 60.629 61.0636C60.2581 61.4345 59.7903 61.4829 59.5806 61.2249C59.371 61.0152 59.4677 60.5313 59.7903 60.2249C60.1452 59.8539 60.629 59.8055 60.8387 60.0636ZM62.6774 57.6927C62.9355 57.854 62.9355 58.2733 62.6774 58.6443C62.4194 59.0152 61.9839 59.1765 61.7742 59.0152C61.5161 58.8055 61.5161 58.3862 61.7742 58.0152C62 57.6443 62.4194 57.483 62.6774 57.6927Z" fill="#C9C7C0"/>
</svg>
