<svg width="238" height="94" viewBox="0 0 238 94" fill="none" xmlns="http://www.w3.org/2000/svg">
<path d="M223 64.5C223 80.2401 210.24 93 194.5 93C178.76 93 166 80.2401 166 64.5C166 48.7599 178.76 36 194.5 36C210.24 36 223 48.7599 223 64.5Z" stroke="#C54309" stroke-width="2"/>
<circle cx="194.5" cy="64.5" r="2.5" fill="black"/>
<rect x="162" y="34" width="8" height="35" fill="#E6E4DC"/>
<rect x="177" y="30" width="8" height="20" fill="#E6E4DC"/>
<path d="M47.04 24.48V66H41.58V35.04L27.78 66H23.94L10.08 34.98V66H4.62V24.48H10.5L25.86 58.8L41.22 24.48H47.04ZM86.2997 48.3C86.2997 49.34 86.2397 50.44 86.1197 51.6H59.8397C60.0397 54.84 61.1397 57.38 63.1397 59.22C65.1797 61.02 67.6397 61.92 70.5197 61.92C72.8797 61.92 74.8397 61.38 76.3997 60.3C77.9997 59.18 79.1197 57.7 79.7597 55.86H85.6397C84.7597 59.02 82.9997 61.6 80.3597 63.6C77.7197 65.56 74.4397 66.54 70.5197 66.54C67.3997 66.54 64.5997 65.84 62.1197 64.44C59.6797 63.04 57.7597 61.06 56.3597 58.5C54.9597 55.9 54.2597 52.9 54.2597 49.5C54.2597 46.1 54.9397 43.12 56.2997 40.56C57.6597 38 59.5597 36.04 61.9997 34.68C64.4797 33.28 67.3197 32.58 70.5197 32.58C73.6397 32.58 76.3997 33.26 78.7997 34.62C81.1997 35.98 83.0397 37.86 84.3197 40.26C85.6397 42.62 86.2997 45.3 86.2997 48.3ZM80.6597 47.16C80.6597 45.08 80.1997 43.3 79.2797 41.82C78.3597 40.3 77.0997 39.16 75.4997 38.4C73.9397 37.6 72.1997 37.2 70.2797 37.2C67.5197 37.2 65.1597 38.08 63.1997 39.84C61.2797 41.6 60.1797 44.04 59.8997 47.16H80.6597ZM105.147 66.54C102.627 66.54 100.367 66.12 98.3667 65.28C96.3667 64.4 94.7867 63.2 93.6267 61.68C92.4667 60.12 91.8267 58.34 91.7067 56.34H97.3467C97.5067 57.98 98.2667 59.32 99.6267 60.36C101.027 61.4 102.847 61.92 105.087 61.92C107.167 61.92 108.807 61.46 110.007 60.54C111.207 59.62 111.807 58.46 111.807 57.06C111.807 55.62 111.167 54.56 109.887 53.88C108.607 53.16 106.627 52.46 103.947 51.78C101.507 51.14 99.5067 50.5 97.9467 49.86C96.4267 49.18 95.1067 48.2 93.9867 46.92C92.9067 45.6 92.3667 43.88 92.3667 41.76C92.3667 40.08 92.8667 38.54 93.8667 37.14C94.8667 35.74 96.2867 34.64 98.1267 33.84C99.9667 33 102.067 32.58 104.427 32.58C108.067 32.58 111.007 33.5 113.247 35.34C115.487 37.18 116.687 39.7 116.847 42.9H111.387C111.267 41.18 110.567 39.8 109.287 38.76C108.047 37.72 106.367 37.2 104.247 37.2C102.287 37.2 100.727 37.62 99.5667 38.46C98.4067 39.3 97.8267 40.4 97.8267 41.76C97.8267 42.84 98.1667 43.74 98.8467 44.46C99.5667 45.14 100.447 45.7 101.487 46.14C102.567 46.54 104.047 47 105.927 47.52C108.287 48.16 110.207 48.8 111.687 49.44C113.167 50.04 114.427 50.96 115.467 52.2C116.547 53.44 117.107 55.06 117.147 57.06C117.147 58.86 116.647 60.48 115.647 61.92C114.647 63.36 113.227 64.5 111.387 65.34C109.587 66.14 107.507 66.54 105.147 66.54ZM140.874 32.52C144.874 32.52 148.114 33.74 150.594 36.18C153.074 38.58 154.314 42.06 154.314 46.62V66H148.914V47.4C148.914 44.12 148.094 41.62 146.454 39.9C144.814 38.14 142.574 37.26 139.734 37.26C136.854 37.26 134.554 38.16 132.834 39.96C131.154 41.76 130.314 44.38 130.314 47.82V66H124.854V33.12H130.314V37.8C131.394 36.12 132.854 34.82 134.694 33.9C136.574 32.98 138.634 32.52 140.874 32.52ZM166.053 27.78C165.013 27.78 164.133 27.42 163.413 26.7C162.693 25.98 162.333 25.1 162.333 24.06C162.333 23.02 162.693 22.14 163.413 21.42C164.133 20.7 165.013 20.34 166.053 20.34C167.053 20.34 167.893 20.7 168.573 21.42C169.293 22.14 169.653 23.02 169.653 24.06C169.653 25.1 169.293 25.98 168.573 26.7C167.893 27.42 167.053 27.78 166.053 27.78ZM168.693 33.12V66H163.233V33.12H168.693ZM183.459 21.6V66H177.999V21.6H183.459ZM194.505 66.36C193.465 66.36 192.585 66 191.865 65.28C191.145 64.56 190.785 63.68 190.785 62.64C190.785 61.6 191.145 60.72 191.865 60C192.585 59.28 193.465 58.92 194.505 58.92C195.505 58.92 196.345 59.28 197.025 60C197.745 60.72 198.105 61.6 198.105 62.64C198.105 63.68 197.745 64.56 197.025 65.28C196.345 66 195.505 66.36 194.505 66.36Z" fill="black"/>
</svg>
